<?xml version="1.0" encoding="UTF-8"?><svg id="Livello_1" xmlns="http://www.w3.org/2000/svg" viewBox="0 0 63.49 72"><defs><style>.cls-1{fill:#ebebeb;}.cls-2{fill:#fff;}.cls-3{fill:#2965f1;}.cls-4{fill:#264de4;}</style></defs><polygon class="cls-4" points="0 0 5.78 64.8 31.71 72 57.71 64.8 63.49 0 0 0"/><polygon class="cls-3" points="52.75 60.67 57.7 5.3 31.74 5.3 31.74 66.49 52.75 60.67"/><path class="cls-1" d="M31.75,49.98h-.03s-8.85-2.38-8.85-2.38l-.56-6.34h-7.98l1.11,12.48,16.28,4.52h.04v-8.28ZM12.54,21.19H31.75v-7.95H11.82l.72,7.95Zm.71,8.14l.71,7.95H31.75v-7.95H13.25Z"/><polygon class="cls-2" points="31.72 29.33 31.72 37.28 41.51 37.28 40.58 47.59 31.72 49.98 31.72 58.25 48.01 53.73 48.13 52.39 50 31.47 50.19 29.33 51.63 13.25 31.72 13.25 31.72 21.19 42.92 21.19 42.19 29.33 31.72 29.33"/></svg>