<?xml version="1.0" encoding="UTF-8"?><svg id="Livello_1" xmlns="http://www.w3.org/2000/svg" viewBox="0 0 63.36 71.93"><defs><style>.cls-1{fill:#ebebeb;}.cls-2{fill:#ef652a;}.cls-3{fill:#fff;}.cls-4{fill:#e34f26;}</style></defs><polygon class="cls-4" points="0 0 5.76 64.63 31.61 71.93 57.6 64.63 63.36 0 0 0"/><polyline class="cls-2" points="31.75 66.31 52.68 60.55 57.6 5.2 31.75 5.2"/><path class="cls-1" d="M31.75,49.87h-.14l-8.85-2.39-.56-6.32h-7.87l.98,12.51,16.3,4.49h.14v-8.29Zm0-20.65h-10.54l-.7-8.15h11.24v-7.87H11.8l.14,2.11,1.97,21.92H31.75v-8.01Z"/><path class="cls-3" d="M31.61,13.21v7.87h19.25l.14-1.69,.42-4.07,.14-2.11H31.61Zm0,16.01v8.01h9.83l-.98,10.25-8.85,2.39v8.29l16.3-4.49,.14-1.41,1.83-20.93,.28-2.11H31.61Z"/></svg>