<?xml version="1.0" encoding="UTF-8"?><svg id="Capa_1" xmlns="http://www.w3.org/2000/svg" viewBox="0 0 47.43 47.43"><defs><style>.cls-1{fill:#fff;}</style></defs><rect width="47.43" height="47.43"/><g><path class="cls-1" d="M23.32,24.36c-.43-.67-1.07-1.16-1.92-1.46,.56-.29,.98-.6,1.27-.95,.51-.61,.77-1.43,.77-2.44s-.26-1.83-.76-2.54c-.85-1.15-2.28-1.74-4.31-1.77H10.35V31.81h7.48c.84,0,1.63-.08,2.35-.23,.72-.15,1.34-.43,1.87-.83,.47-.35,.86-.79,1.18-1.31,.49-.78,.74-1.66,.74-2.65s-.22-1.76-.65-2.43Zm-9.66-6.27h3.61c.8,0,1.45,.08,1.96,.26,.6,.24,.9,.75,.9,1.53,0,.7-.23,1.18-.68,1.46-.45,.27-1.03,.41-1.76,.41h-4.03v-3.66Zm5.71,10.54c-.4,.2-.96,.29-1.68,.29h-4.03v-4.42h4.09c.71,0,1.26,.1,1.66,.28,.7,.32,1.05,.91,1.05,1.78,0,1.02-.36,1.71-1.09,2.07Z"/><g><path class="cls-1" d="M36.98,24.13c-.15-.96-.48-1.81-.98-2.54-.56-.82-1.27-1.43-2.13-1.81-.85-.39-1.81-.58-2.88-.58-1.8,0-3.27,.57-4.39,1.7-1.13,1.14-1.69,2.77-1.69,4.9,0,2.27,.62,3.91,1.87,4.91,1.25,1.01,2.69,1.51,4.32,1.51,1.98,0,3.52-.59,4.62-1.79,.71-.75,1.11-1.49,1.19-2.22h-3.27c-.19,.36-.42,.65-.67,.85-.45,.37-1.05,.56-1.78,.56-.69,0-1.28-.15-1.77-.46-.8-.5-1.23-1.36-1.28-2.59h8.94c.02-1.06-.02-1.87-.1-2.44Zm-8.76,.32c.11-.8,.4-1.43,.85-1.9,.46-.47,1.1-.7,1.92-.7,.76,0,1.39,.22,1.9,.66,.52,.44,.8,1.09,.86,1.94h-5.53Z"/><rect class="cls-1" x="27.17" y="16.16" width="7.22" height="1.68"/></g></g></svg>