<?xml version="1.0" encoding="UTF-8"?><svg id="Livello_1" xmlns="http://www.w3.org/2000/svg" viewBox="0 0 72 71.94"><defs><style>.cls-1{fill:#ff9a00;}.cls-2{fill:#300;}</style></defs><path class="cls-2" d="M12.75,0H59.25c7.05,0,12.75,5.84,12.75,13.07V58.87c0,7.22-5.7,13.07-12.75,13.07H12.75c-7.05,0-12.75-5.84-12.75-13.07V13.07C0,5.84,5.7,0,12.75,0Z"/><path class="cls-1" d="M34.8,43.04h-11.16l-2.28,7.22c-.06,.28-.3,.46-.57,.43h-5.64c-.33,0-.42-.18-.33-.55l9.66-28.5c.09-.31,.18-.65,.3-1.01,.12-.65,.18-1.32,.18-2-.03-.15,.09-.31,.24-.34h7.77c.24,0,.36,.09,.39,.25l10.95,31.66c.09,.34,0,.49-.3,.49h-6.27c-.21,.03-.42-.12-.48-.34l-2.46-7.32Zm-9.42-6.24h7.62c-.18-.65-.42-1.41-.69-2.21-.27-.83-.54-1.72-.81-2.64-.3-.95-.57-1.88-.87-2.83s-.57-1.84-.81-2.74c-.24-.86-.45-1.66-.66-2.4h-.06c-.27,1.32-.6,2.64-1.02,3.97-.45,1.48-.9,3.01-1.38,4.55-.42,1.57-.87,3.01-1.32,4.3Zm25.62-13.13c-.99,.03-1.95-.37-2.67-1.08-.69-.77-1.05-1.78-1.02-2.83-.03-1.05,.36-2.03,1.08-2.74s1.68-1.08,2.67-1.08c1.17,0,2.07,.37,2.73,1.08,.66,.74,1.02,1.72,.99,2.74,.03,1.05-.33,2.06-1.05,2.83-.69,.74-1.71,1.14-2.73,1.08h0Zm-3.36,26.68V26.68c0-.31,.12-.43,.39-.43h5.94c.27,0,.39,.15,.39,.43v23.67c0,.34-.12,.49-.39,.49h-5.88c-.3,0-.45-.18-.45-.49Z"/></svg>