<?xml version="1.0" encoding="UTF-8"?><svg id="Livello_1" xmlns="http://www.w3.org/2000/svg" viewBox="0 0 72.03 71.99"><defs><style>.cls-1{fill:#001e36;}.cls-2{fill:#31a8ff;}</style></defs><g id="Layer_2"><g id="Surfaces"><g id="Photo_Surface"><g id="Outline_no_shadow"><path class="cls-1" d="M12.75,0H59.27c7.05,0,12.75,5.85,12.75,13.08V58.92c0,7.23-5.7,13.08-12.75,13.08H12.75c-7.05,0-12.75-5.85-12.75-13.08V13.08C0,5.85,5.7,0,12.75,0Z"/></g></g></g><g id="Outlined_Mnemonics_Logos"><g id="Ps"><path class="cls-2" d="M16.21,50.49V18.83c0-.22,.09-.34,.3-.34,.51,0,.99,0,1.68-.03,.72-.03,1.47-.03,2.28-.06,.81-.03,1.68-.03,2.61-.06,.93-.03,1.83-.03,2.73-.03,2.46,0,4.5,.31,6.18,.95,1.5,.52,2.88,1.38,4.02,2.52,.96,.98,1.71,2.18,2.19,3.51,.45,1.29,.69,2.62,.69,4,0,2.65-.6,4.83-1.8,6.55s-2.88,3.02-4.83,3.75c-2.04,.77-4.29,1.05-6.75,1.05-.72,0-1.2,0-1.5-.03s-.72-.03-1.29-.03v9.88c.03,.22-.12,.4-.33,.43h-5.82c-.24,0-.36-.12-.36-.4Zm6.54-26.06v10.34c.42,.03,.81,.06,1.17,.06h1.59c1.17,0,2.34-.18,3.45-.55,.96-.28,1.8-.86,2.46-1.63,.63-.77,.93-1.82,.93-3.17,.03-.95-.21-1.91-.69-2.74-.51-.8-1.23-1.42-2.1-1.75-1.11-.46-2.31-.65-3.54-.62-.78,0-1.47,0-2.04,.03-.6-.03-1.02,0-1.23,.03h0Z"/><path class="cls-2" d="M57.62,32.89c-.9-.49-1.86-.83-2.88-1.05-1.11-.25-2.22-.4-3.36-.4-.6-.03-1.23,.06-1.8,.22-.39,.09-.72,.31-.93,.62-.15,.25-.24,.55-.24,.83s.12,.55,.3,.8c.27,.34,.63,.62,1.02,.83,.69,.37,1.41,.71,2.13,1.02,1.62,.55,3.18,1.32,4.62,2.25,.99,.65,1.8,1.51,2.37,2.55,.48,.98,.72,2.06,.69,3.17,.03,1.45-.39,2.89-1.17,4.09-.84,1.23-2.01,2.18-3.36,2.74-1.47,.65-3.27,.98-5.43,.98-1.38,0-2.73-.12-4.08-.4-1.05-.18-2.1-.52-3.06-.98-.21-.12-.36-.34-.33-.58v-5.35c0-.09,.03-.22,.12-.28,.09-.06,.18-.03,.27,.03,1.17,.71,2.4,1.2,3.72,1.51,1.14,.31,2.34,.46,3.54,.46s1.95-.15,2.49-.43c.48-.22,.81-.74,.81-1.29,0-.43-.24-.83-.72-1.23-.48-.4-1.47-.86-2.94-1.45-1.53-.55-2.94-1.29-4.26-2.22-.93-.68-1.71-1.57-2.28-2.62-.48-.98-.72-2.06-.69-3.14,0-1.32,.36-2.58,1.02-3.72,.75-1.23,1.86-2.22,3.15-2.83,1.41-.74,3.18-1.08,5.31-1.08,1.23,0,2.49,.09,3.72,.28,.9,.12,1.77,.37,2.58,.71,.12,.03,.24,.15,.3,.28,.03,.12,.06,.25,.06,.37v5.01c0,.12-.06,.25-.15,.31-.27,.06-.42,.06-.54,0Z"/></g></g></g></svg>