<?xml version="1.0" encoding="UTF-8"?><svg id="Livello_1" xmlns="http://www.w3.org/2000/svg" xmlns:xlink="http://www.w3.org/1999/xlink" viewBox="0 0 47.96 72"><defs><style>.cls-1{fill:none;}.cls-2{clip-path:url(#clippath);}.cls-3{fill:#f04f1f;}.cls-4{fill:#ff7361;}.cls-5{fill:#9e59ff;}.cls-6{fill:#0acc80;}.cls-7{fill:#1abafa;}</style><clipPath id="clippath"><rect class="cls-1" width="47.96" height="72"/></clipPath></defs><g class="cls-2"><path class="cls-6" d="M11.99,72c6.62,0,11.99-5.38,11.99-12v-12H11.99c-6.62,0-11.99,5.37-11.99,12s5.37,12,11.99,12"/><path class="cls-5" d="M0,36c0-6.63,5.37-12,11.99-12h11.99v24H11.99c-6.62,0-11.99-5.37-11.99-12"/><path class="cls-3" d="M0,12C0,5.38,5.37,0,11.99,0h11.99V24H11.99C5.37,24,0,18.63,0,12"/><path class="cls-4" d="M23.98,0h11.99C42.59,0,47.97,5.38,47.97,12s-5.37,12-11.99,12h-11.99V0Z"/><path class="cls-7" d="M47.97,36c0,6.62-5.37,12-11.99,12s-11.99-5.37-11.99-12,5.37-12,11.99-12,11.99,5.37,11.99,12"/></g></svg>