<svg width="120" height="60" viewBox="0 0 120 60" fill="none" xmlns="http://www.w3.org/2000/svg" xmlns:xlink="http://www.w3.org/1999/xlink">
 <path fill-rule="evenodd" clip-rule="evenodd" d="M5.62995 52.7353C-1.87675 45.2944 -1.87663 33.2306 5.63018 25.7899L26.019 5.5806C32.365 -0.709432 42.0439 -1.68223 49.4208 2.66222C51.7025 4.00599 51.6826 7.08859 49.8058 8.94879C47.9291 10.809 44.8657 10.6489 42.3183 9.91041C39.0563 8.96475 35.388 9.76694 32.8153 12.317L12.4264 32.5263C8.67299 36.2467 8.67294 42.2786 12.4263 45.999C16.1797 49.7195 22.2653 49.7195 26.0188 45.9991L66.7961 5.58086C74.303 -1.85989 86.4739 -1.85992 93.9808 5.58077L114.37 25.7899C121.877 33.2306 121.877 45.2946 114.37 52.7353C106.863 60.1761 94.692 60.1761 87.1851 52.7353L80.3888 45.9989L71.8935 54.4194C65.5476 60.7094 55.8686 61.6822 48.4918 57.3378C46.21 55.994 46.23 52.9114 48.1067 51.0512C49.9835 49.191 53.0469 49.3511 55.5943 50.0896C58.8563 51.0353 62.5246 50.2331 65.0973 47.683L73.8353 39.0219C77.4547 35.4344 83.3229 35.4344 86.9423 39.0219L93.9814 45.999C97.7348 49.7193 103.82 49.7193 107.574 45.999C111.327 42.2786 111.327 36.2467 107.574 32.5263L87.1847 12.3172C83.4312 8.59686 77.3458 8.59688 73.5923 12.3172L32.8151 52.7355C25.3081 60.1764 13.1368 60.1763 5.62995 52.7353Z" fill="black">
 </path>
</svg>