<svg version="1.1" id="Layer_1" xmlns="http://www.w3.org/2000/svg" xmlns:xlink="http://www.w3.org/1999/xlink" x="0px" y="0px" viewBox="0 0 120 60" style="enable-background:new 0 0 120 60;" xml:space="preserve">
 <style type="text/css">
  .st0{fill-rule:evenodd;clip-rule:evenodd;fill:#FFFFFF;}
 </style>
 <path class="st0" d="M5.6,52.7c-7.5-7.4-7.5-19.5,0-26.9L26,5.6c6.3-6.3,16-7.3,23.4-2.9c2.3,1.3,2.3,4.4,0.4,6.3
	c-1.9,1.9-4.9,1.7-7.5,1c-3.3-0.9-6.9-0.1-9.5,2.4L12.4,32.5c-3.8,3.7-3.8,9.8,0,13.5c3.8,3.7,9.8,3.7,13.6,0L66.8,5.6
	c7.5-7.4,19.7-7.4,27.2,0l20.4,20.2c7.5,7.4,7.5,19.5,0,26.9c-7.5,7.4-19.7,7.4-27.2,0L80.4,46l-8.5,8.4c-6.3,6.3-16,7.3-23.4,2.9
	c-2.3-1.3-2.3-4.4-0.4-6.3c1.9-1.9,4.9-1.7,7.5-1c3.3,0.9,6.9,0.1,9.5-2.4l8.7-8.7c3.6-3.6,9.5-3.6,13.1,0l7,7
	c3.8,3.7,9.8,3.7,13.6,0c3.8-3.7,3.8-9.8,0-13.5L87.2,12.3c-3.8-3.7-9.8-3.7-13.6,0L32.8,52.7C25.3,60.2,13.1,60.2,5.6,52.7z">
 </path>
</svg>