<?xml version="1.0" encoding="UTF-8"?>
<!DOCTYPE svg PUBLIC "-//W3C//DTD SVG 1.1//EN" "http://www.w3.org/Graphics/SVG/1.1/DTD/svg11.dtd">
<!-- Creator: CorelDRAW -->
<svg xmlns="http://www.w3.org/2000/svg" xml:space="preserve" width="2048px" height="2048px" style="shape-rendering:geometricPrecision; text-rendering:geometricPrecision; image-rendering:optimizeQuality; fill-rule:evenodd; clip-rule:evenodd"
viewBox="0 0 2048 2048"
 xmlns:xlink="http://www.w3.org/1999/xlink">
 <defs>
  <style type="text/css">
   <![CDATA[
    .fil6 {fill:none}
    .fil5 {fill:#202020}
    .fil2 {fill:#414141}
    .fil1 {fill:#A4A4A5}
    .fil4 {fill:#A8A8A8}
    .fil3 {fill:#B3B4B4}
    .fil0 {fill:#646565;fill-rule:nonzero}
   ]]>
  </style>
 </defs>
 <g id="Layer_x0020_1">
  <metadata id="CorelCorpID_0Corel-Layer"/>
  <path class="fil0" d="M474.452 738.801c6.22796,-0.27874 11.5028,4.5437 11.7827,10.7705 0.27874,6.22796 -4.5437,11.5039 -10.7717,11.7827 -11.6693,0.536221 -23.0256,-0.608268 -34.0654,-3.3815 -10.9819,-2.75788 -21.5315,-7.11615 -31.6547,-13.024 -5.37166,-3.14055 -7.18229,-10.0417 -4.04174,-15.4134 3.13937,-5.37048 10.0417,-7.18111 15.4122,-4.04174 8.31497,4.85315 16.9016,8.413 25.7551,10.637 8.79095,2.20748 17.9847,3.11103 27.5835,2.67047z"/>
  <path class="fil0" d="M486.566 782.868c2.07756,-5.86772 8.5193,-8.94331 14.3882,-6.86575 5.86772,2.07874 8.94331,8.52048 6.86457,14.3894 -3.91418,11.0894 -9.23741,21.1973 -15.9236,30.3437 -6.66969,9.12284 -14.6634,17.2512 -23.9327,24.4075 -4.92874,3.81378 -12.0189,2.90788 -15.8327,-2.02087 -3.81378,-4.92993 -2.90788,-12.0189 2.02087,-15.8327 7.62993,-5.89134 14.1662,-12.5221 19.565,-19.9063 5.38229,-7.36182 9.67678,-15.528 12.8504,-24.515z"/>
  <path class="fil0" d="M521.816 700.809c4.96654,3.77362 5.93623,10.8591 2.1626,15.8256 -3.77244,4.96536 -10.8591,5.93504 -15.8244,2.1626 -9.34135,-7.08662 -17.3351,-15.2339 -24.0201,-24.4028 -6.66142,-9.13701 -11.9693,-19.2366 -15.9662,-30.2646 -2.12953,-5.85473 0.892914,-12.3284 6.74646,-14.4579 5.85473,-2.12835 12.3295,0.892914 14.4591,6.74764 3.27874,9.04607 7.59686,17.2795 12.9815,24.6685 5.36221,7.35473 11.8394,13.9382 19.461,19.7209z"/>
  <path class="fil0" d="M864.727 1127.03c-2.74134,-5.08819 -9.08859,-6.99449 -14.178,-4.25315 -5.08819,2.74016 -6.99331,9.08859 -4.25315,14.1768 5.14607,9.5693 11.4555,18.0579 18.8894,25.4953 7.40788,7.41142 15.8929,13.7221 25.4126,18.965 5.05512,2.79095 11.4165,0.954331 14.2063,-4.09961 2.78977,-5.05394 0.954331,-11.4154 -4.09961,-14.2051 -7.81064,-4.30158 -14.7284,-9.4382 -20.7189,-15.4299 -5.96339,-5.96575 -11.0599,-12.841 -15.2587,-20.6492z"/>
  <path class="fil0" d="M823.14 1164.94c1.15039,-5.66103 -2.50748,-11.1839 -8.16851,-12.3343 -5.66103,-1.15039 -11.1827,2.50748 -12.3331,8.16851 -2.16732,10.6063 -2.75197,21.1677 -1.79882,31.6725 0.947245,10.4504 3.42166,20.7343 7.37599,30.8516 2.10354,5.36811 8.16142,8.01733 13.5295,5.91378 5.36811,-2.10236 8.01733,-8.16142 5.91497,-13.5295 -3.24803,-8.30906 -5.27363,-16.6807 -6.0378,-25.1067 -0.758268,-8.36575 -0.264567,-16.911 1.51772,-25.6358z"/>
  <path class="fil0" d="M784.538 1147.52c5.67048,-1.05945 9.41103,-6.51497 8.35158,-12.1854 -1.05945,-5.67166 -6.51497,-9.41221 -12.1866,-8.35276 -10.715,1.99134 -20.7331,5.41182 -30.0673,10.2189 -9.31064,4.79528 -17.8996,10.9465 -25.7823,18.404 -4.2,3.96378 -4.38898,10.585 -0.425197,14.7851 3.96496,4.2 10.585,4.38898 14.7851,0.424016 6.48898,-6.13937 13.4988,-11.1709 21.0354,-15.052 7.513,-3.86929 15.6059,-6.62835 24.2894,-8.24174z"/>
  <path class="fil0" d="M1273.46 930.447c-0.999213,-6.66024 3.58937,-12.8728 10.2496,-13.8721 6.66024,-0.999213 12.8728,3.58937 13.8721,10.2496 1.8874,12.5197 1.93465,24.8445 0.198425,36.9744 -1.73032,12.0874 -5.23347,23.9008 -10.4492,35.4425 -2.76378,6.13347 -9.97914,8.86654 -16.1126,6.10276 -6.13347,-2.76378 -8.86536,-9.97914 -6.10158,-16.1126 4.27796,-9.4689 7.14095,-19.0914 8.54174,-28.8662 1.39134,-9.72875 1.34173,-19.702 -0.198425,-29.9185z"/>
  <path class="fil0" d="M1338.73 936.739c-5.02796,-4.4752 -5.47559,-12.1807 -1.00039,-17.2087 4.4752,-5.02796 12.1807,-5.47678 17.2099,-1.00039 9.43111,8.37638 17.3551,17.8181 23.8063,28.2815 6.41812,10.4067 11.2961,21.7264 14.6776,33.9248 1.78937,6.47481 -2.00906,13.1788 -8.48505,14.9681 -6.47599,1.79055 -13.1799,-2.00906 -14.9693,-8.48505 -2.77677,-10.0181 -6.73701,-19.2414 -11.9114,-27.6331 -5.1378,-8.3315 -11.5689,-15.9555 -19.3276,-22.8473z"/>
  <path class="fil0" d="M1362.55 893.521c-6.02835,2.97402 -13.3288,0.499607 -16.3028,-5.52874 -2.97402,-6.02953 -0.499607,-13.3299 5.52874,-16.3039 11.3835,-5.63032 23.1166,-9.44056 35.1803,-11.4791 12.0331,-2.03268 24.3414,-2.29843 36.9036,-0.851575 6.68623,0.762993 11.4886,6.80552 10.7256,13.4917 -0.761812,6.68741 -6.80434,11.4898 -13.4906,10.7268 -10.3417,-1.19173 -20.3941,-0.986221 -30.1347,0.659056 -9.70985,1.64173 -19.1847,4.72323 -28.4103,9.28583z"/>
  <path class="fil0" d="M1201.44 324.063c-0.895276,5.96693 3.21496,11.5323 9.1819,12.4276 5.96693,0.895276 11.5323,-3.21496 12.4276,-9.1819 1.69016,-11.2169 1.73268,-22.2591 0.177165,-33.1252 -1.54961,-10.8284 -4.6878,-21.4122 -9.36024,-31.7516 -2.47677,-5.49449 -8.94095,-7.94292 -14.4354,-5.46733 -5.49449,2.47677 -7.94174,8.94095 -5.46615,14.4354 3.83268,8.48268 6.39804,17.1036 7.65237,25.8591 1.24725,8.71654 1.20236,17.6516 -0.177165,26.804z"/>
  <path class="fil0" d="M1259.91 318.425c-4.50473,4.00985 -4.9063,10.9134 -0.896457,15.4181 4.00985,4.50355 10.9122,4.90512 15.4169,0.896457 8.44961,-7.50473 15.548,-15.9638 21.3284,-25.337 5.74961,-9.32363 10.1197,-19.4646 13.1492,-30.3921 1.60276,-5.80158 -1.80118,-11.8075 -7.60158,-13.4102 -5.80158,-1.60394 -11.8075,1.8 -13.4102,7.60158 -2.48858,8.9752 -6.03662,17.2382 -10.6724,24.7547 -4.60276,7.46457 -10.3642,14.2949 -17.3138,20.4685z"/>
  <path class="fil0" d="M1281.26 357.143c-5.40119,-2.66339 -11.941,-0.447638 -14.6055,4.95355 -2.66457,5.40119 -0.447638,11.9421 4.95355,14.6067 10.1976,5.04331 20.7095,8.4567 31.5166,10.2827 10.7799,1.82126 21.8067,2.05984 33.0603,0.762993 5.99056,-0.683859 10.2933,-6.09567 9.60946,-12.0862 -0.682678,-5.99174 -6.09567,-10.2933 -12.0862,-9.61064 -9.26457,1.06772 -18.2705,0.883465 -26.9965,-0.590552 -8.69883,-1.46929 -17.1874,-4.23071 -25.4516,-8.31851z"/>
  <path class="fil1" d="M1181.44 515.705l84.7536 0c-1.90866,-40.4221 -39.7512,-66.8977 -73.6312,-91.2603 -19.2177,-13.8165 -12.5528,-9.92363 4.21181,-36.1335 11.048,-17.2713 70.7693,3.57874 90.1619,-4.10315 4.31339,-1.70669 -2.08229,-100.704 -92.1119,-58.2343 -41.2276,2.70118 -72.8599,27.841 -91.9879,57.7465 -16.7658,26.2087 -14.2465,26.9067 4.97126,40.7244 33.8811,24.3626 71.7225,50.8382 73.6323,91.2603z"/>
  <path class="fil1" d="M694.293 835.492l-68.3705 66.5812c-30.215,-34.1079 -20.4862,-85.1942 -12.2941,-131.463 4.64764,-26.2429 2.33032,-17.8665 -31.7835,-25.8402 -22.4811,-5.25355 -54.2776,58.4835 -75.9556,67.5201 -4.82126,2.01142 -77.4319,-82.8733 28.5567,-119.339 35.3811,-30.2091 80.6469,-34.7776 119.57,-25.6807 34.115,7.97245 32.6303,10.5142 27.9827,36.7583 -8.19331,46.2697 -17.9209,97.3548 12.2941,131.463z"/>
  <path class="fil1" d="M762.264 930.967l-76.376 57.2221c29.0114,35.1378 80.9883,33.4465 127.967,32.5264 26.6469,-0.523229 18.013,0.467717 20.6008,35.4048 1.70433,23.0232 -66.1902,44.5559 -78.4796,64.5709 -2.73307,4.4504 69.8682,89.3434 122.323,-9.71103 35.3292,-30.2705 46.8603,-74.2808 43.9075,-114.144 -2.58662,-34.9382 -5.32914,-33.8646 -31.976,-33.3425 -46.9796,0.921261 -98.9552,2.61142 -127.967,-32.5264z"/>
  <path class="fil1" d="M1250.27 714.638l95.4343 0c-2.14961,45.5162 -44.7603,75.3272 -82.9099,102.76 -21.639,15.5587 -14.1354,11.1756 4.74213,40.6866 12.4406,19.448 79.6879,-4.02992 101.523,4.62048 4.8567,1.92284 -2.34449,113.394 -103.717,65.5725 -46.4244,-3.04252 -82.0406,-31.3488 -103.579,-65.0221 -18.8788,-29.5122 -16.0417,-30.2977 5.59725,-45.8575 38.1508,-27.4323 80.7603,-57.2434 82.9099,-102.76z"/>
  <path class="fil2" d="M1608.5 472.417c26.3114,1.42441 46.9689,12.2504 46.1398,24.1772 -0.830316,11.9291 -22.8331,20.439 -49.1445,19.0146 -26.3103,-1.42441 -46.9689,-12.248 -46.1398,-24.176 0.831497,-11.928 22.8331,-20.439 49.1445,-19.0158z"/>
  <path class="fil2" d="M1638.79 628.809c25.3205,-7.32993 48.9012,-2.72599 52.6678,10.285 3.76418,13.0099 -13.7114,29.4957 -39.0343,36.8244 -25.3193,7.32875 -48.9012,2.72481 -52.6666,-10.2862 -3.76418,-13.0099 13.7102,-29.4945 39.0331,-36.8233z"/>
  <path class="fil3" d="M586.606 884.019l86.5194 -68.3989c145.91,-217.077 395.176,-315.637 647.726,-305.57 21.0614,-2.97992 41.5607,2.50984 63.1878,-8.93623 18.4441,-25.6843 42.6319,-46.9512 73.1646,-63.339l75.3497 1.09252c46.9429,5.68937 93.8824,14.3599 140.824,38.0729 92.9446,-8.17796 131.544,158.902 16.5543,192.187 -41.3363,29.7484 -88.6867,50.915 -144.075,60.5941 -28.1126,16.7776 -56.2252,17.8595 -84.3367,8.71182 -23.4366,-12.2421 -44.4733,-43.6796 -70.3087,-36.7276 -117.573,78.4642 -209.354,-11.0268 -372.12,156.265l-405.899 170.861c-436.109,220.21 -359.746,1063.89 166.545,568.319 -427.819,570.724 -754.28,-236.574 -193.133,-713.13z"/>
  <path class="fil4" d="M1756.78 604.839c-8.32323,28.4906 -29.4614,53.4638 -66.8528,64.2875 -41.3363,29.7484 -88.6867,50.915 -144.075,60.5941 -28.1126,16.7776 -56.2252,17.8595 -84.3367,8.71182 -23.4366,-12.2421 -44.4733,-43.6796 -70.3087,-36.7276 -113.916,76.7209 -68.615,-3.87166 -354.871,150.924l-29.0776 15.724 -394.07 160.478c-175.027,88.3784 -300.823,318.447 -282.708,514.309 -3.95197,68.0682 7.41733,134.368 37.7551,192.112 -212.626,-230.969 32.713,-628.741 219.339,-787.234l86.5194 -68.3989c132.331,-180.447 1006.96,-509.377 1082.69,-274.78z"/>
  <ellipse class="fil5" transform="matrix(0.532888 0.0402341 -0.036055 0.722355 1607 494.013)" rx="50.8689" ry="23.7118"/>
  <ellipse class="fil5" transform="matrix(0.52326 -0.108568 0.164934 0.704197 1640.82 650.874)" rx="50.8689" ry="23.7118"/>
 </g>
 <rect class="fil6" width="2048" height="2048"/>
</svg>
