<?xml version="1.0" encoding="UTF-8"?><svg id="Livello_1" xmlns="http://www.w3.org/2000/svg" viewBox="0 0 72 72"><defs><style>.cls-1{fill:#f36;}.cls-2{fill:#49021f;}</style></defs><path class="cls-2" d="M12.75,0H59.25c7.05,0,12.75,5.85,12.75,13.08V58.92c0,7.23-5.7,13.08-12.75,13.08H12.75c-7.05,0-12.75-5.85-12.75-13.08V13.08C0,5.85,5.7,0,12.75,0Z"/><g id="vlpa"><g id="vlpb"><path class="cls-1" d="M26.16,18.83v31.69c0,.34-.15,.49-.42,.49h-5.88c-.27,0-.39-.15-.39-.49V18.83c0-.28,.15-.4,.42-.4h5.85c.18-.03,.36,.09,.39,.31,.03,.03,.03,.06,.03,.09Z"/><path class="cls-1" d="M43.5,51.38c-2.22,.03-4.44-.43-6.45-1.38-1.89-.89-3.45-2.37-4.53-4.18-1.11-1.88-1.65-4.22-1.65-7.02-.03-2.28,.54-4.52,1.65-6.49,1.14-2,2.79-3.66,4.77-4.77,2.1-1.2,4.62-1.78,7.59-1.78,.15,0,.36,0,.63,.03s.57,.03,.93,.06v-9.72c0-.22,.09-.34,.3-.34h6.09c.15-.03,.27,.09,.3,.22v29.35c0,.55,.03,1.17,.06,1.85,.06,.65,.09,1.26,.12,1.78,0,.22-.09,.4-.3,.49-1.56,.68-3.21,1.17-4.89,1.48-1.5,.28-3.06,.43-4.62,.43h0Zm2.94-6.15v-13.54c-.27-.06-.54-.12-.81-.15-.33-.03-.66-.06-.99-.06-1.17,0-2.34,.25-3.39,.8-1.02,.52-1.89,1.29-2.55,2.28s-.99,2.31-.99,3.91c-.03,1.08,.15,2.15,.51,3.17,.3,.83,.75,1.57,1.35,2.18,.57,.55,1.26,.98,2.04,1.23,.81,.28,1.65,.4,2.49,.4,.45,0,.87-.03,1.26-.06,.39,.03,.75-.03,1.08-.15h0Z"/></g></g></svg>